{"title":"Drive Angry 2011 DVDrip English Klam","uid":6394714,"size":1682201986,"categoryP":"video","categoryS":"movies","magnet":"?xt=urn:btih:02e2748ce95f5482ae21f58299373208f8e84970&amp;dn=Drive+Angry+2011+DVDrip+English+Klam&amp;tr=udp%3A%2F%2Ftracker.openbittorrent.com%3A80&amp;tr=udp%3A%2F%2Fopen.demonii.com%3A1337&amp;tr=udp%3A%2F%2Ftracker.coppersurfer.tk%3A6969&amp;tr=udp%3A%2F%2Fexodus.desync.com%3A6969","seeders":1,"leechers":0,"uploader":"Klambake","files":-1,"time":1305479186,"description":"With: Nicolas Cage, Amber Heard and William Fichtner\n\nWanneer de dochter van Milton (Nicolas Cage) vermoord wordt wil hij maar ÃƒÂ©ÃƒÂ©n ding; wraak. Hij krijgt drie dagen de tijd om de moordenaars te vinden, omdat deze ook nog eens zijn kleindochter ontvoerd hebben en ze van plan zijn om haar onder een volle maan te offeren. Hij wordt tijdens zijn wraakmissie vergezeld door Piper (Amber Heard), een jonge en sexy serveerster. In Pipers 'turbo-charged Black '69 Charger' beginnen ze een race tegen de klok...\n\nA vengeful father escapes from hell and chases after the men who killed his daughter and kidnapped his granddaughter.\n\nGeneral:\n\nComplete name                    : Drive Angry\\Drive Angry.avi\nFormat                           : AVI\nFormat/Info                      : Audio Video Interleave\nFile size                        : 1.57 GiB\nDuration                         : 1h 44mn\nOverall bit rate                 : 2 146 Kbps\n\nVideo:\n\nFormat                           : MPEG-4 Visual\nFormat profile                   : Simple@L3\nFormat settings, BVOP            : No\nFormat settings, QPel            : No\nFormat settings, GMC             : No warppoints\nFormat settings, Matrix          : Default (H.263)\nCodec ID                         : XVID\nCodec ID/Hint                    : XviD\nDuration                         : 1h 44mn\nBit rate                         : 1 687 Kbps\nWidth                            : 720 pixels\nHeight                           : 384 pixels\nDisplay aspect ratio             : 1.875\nFrame rate                       : 23.976 fps\nColor space                      : YUV\nChroma subsampling               : 4:2:0\nBit depth                        : 8 bits\nScan type                        : Progressive\nBits/(Pixel*Frame)               : 0.255\nStream size                      : 1.23 GiB (79%)\nWriting library                  : XviD 1.1.2 (UTC 2006-11-01)\n\nAudio:\n\nFormat                           : AC-3\nFormat/Info                      : Audio Coding 3\nMode extension                   : CM (complete main)\nCodec ID                         : 2000\nDuration                         : 1h 44mn\nBit rate mode                    : Constant\nBit rate                         : 448 Kbps\nChannel(s)                       : 6 channels\nChannel positions                : Front: L C R, Side: L R, LFE\nSampling rate                    : 48.0 KHz\nBit depth                        : 16 bits\nStream size                      : 335 MiB (21%)\nAlignment                        : Aligned on interleaves\nInterleave, duration             : 32 ms (0.77 video frame)\n\n\n\n","torrent":{"xt":"urn:btih:02e2748ce95f5482ae21f58299373208f8e84970","amp;dn":"Drive+Angry+2011+DVDrip+English+Klam","amp;tr":["udp%3A%2F%2Ftracker.openbittorrent.com%3A80","udp%3A%2F%2Fopen.demonii.com%3A1337","udp%3A%2F%2Ftracker.coppersurfer.tk%3A6969","udp%3A%2F%2Fexodus.desync.com%3A6969"],"infoHash":"02e2748ce95f5482ae21f58299373208f8e84970","infoHashBuffer":{"type":"Buffer","data":[2,226,116,140,233,95,84,130,174,33,245,130,153,55,50,8,248,232,73,112]},"announce":[],"urlList":[]}}